<?xml version="1.0" standalone="no"?>
<!DOCTYPE svg PUBLIC "-//W3C//DTD SVG 20010904//EN"
 "http://www.w3.org/TR/2001/REC-SVG-20010904/DTD/svg10.dtd">
<svg version="1.0" xmlns="http://www.w3.org/2000/svg"
 width="301.000000pt" height="301.000000pt" viewBox="0 0 301.000000 301.000000"
 preserveAspectRatio="xMidYMid meet">
<metadata>
Created by potrace 1.11, written by Peter Selinger 2001-2013
</metadata>
<g transform="translate(0.000000,301.000000) scale(0.100000,-0.100000)"
fill="#000000" stroke="none">
<path d="M1497 2924 c-1 -2 -36 -6 -77 -9 -130 -10 -163 -14 -169 -22 -5 -7
-35 -12 -83 -14 -10 0 -18 -4 -18 -10 0 -5 -11 -9 -24 -9 -14 0 -27 -4 -31
-10 -3 -5 -12 -7 -20 -3 -8 3 -15 0 -15 -7 0 -6 -4 -9 -9 -6 -10 6 -61 -16
-61 -26 0 -4 -7 -5 -15 -2 -10 4 -15 0 -16 -12 0 -11 -3 -14 -6 -6 -7 17 -23
15 -23 -3 0 -9 -6 -12 -17 -8 -12 5 -14 3 -8 -7 6 -10 4 -12 -8 -7 -22 8 -47
-2 -47 -19 0 -7 -6 -11 -14 -8 -9 3 -17 -3 -21 -16 -5 -17 -10 -19 -21 -9 -13
11 -18 6 -15 -14 1 -5 -3 -5 -10 -2 -11 7 -94 -47 -116 -75 -6 -8 -16 -15 -21
-15 -13 0 -92 -73 -92 -85 0 -5 -4 -9 -8 -7 -12 3 -92 -84 -86 -95 3 -4 2 -7
-3 -6 -9 3 -61 -53 -107 -114 -19 -26 -24 -38 -15 -39 8 0 4 -5 -9 -11 -13 -6
-21 -17 -18 -24 3 -7 -2 -15 -10 -18 -9 -3 -12 -10 -9 -16 3 -5 1 -10 -6 -10
-8 0 -8 -4 1 -15 11 -13 10 -15 -1 -10 -17 6 -53 -60 -43 -78 4 -7 4 -9 -1 -5
-4 4 -14 -4 -22 -19 -11 -21 -11 -28 -1 -35 9 -5 8 -8 -5 -8 -14 0 -17 -5 -12
-21 5 -15 4 -19 -4 -15 -7 4 -11 -1 -11 -13 0 -11 -5 -23 -11 -27 -6 -3 -9
-15 -6 -25 3 -10 -1 -23 -9 -30 -8 -6 -11 -15 -8 -20 3 -5 2 -15 -3 -21 -4 -7
-8 -22 -8 -33 -1 -11 -4 -27 -8 -35 -18 -47 -32 -403 -16 -425 4 -5 8 -13 8
-17 1 -5 1 -11 2 -15 1 -5 0 -23 -1 -40 -1 -19 3 -33 10 -33 7 0 9 -11 6 -30
-2 -17 0 -30 6 -30 6 0 8 -9 5 -20 -3 -10 1 -24 9 -31 8 -6 11 -15 8 -21 -3
-5 0 -15 6 -23 7 -8 10 -22 6 -30 -3 -9 0 -15 8 -15 9 0 12 -7 9 -20 -3 -12 0
-20 7 -20 7 0 10 -7 6 -15 -3 -8 -1 -15 4 -15 6 0 9 -6 8 -12 -2 -7 3 -12 10
-10 9 2 11 -4 7 -18 -4 -13 -2 -20 6 -20 7 0 10 -3 6 -6 -5 -6 20 -57 65 -132
11 -17 25 -29 30 -26 6 4 8 2 5 -4 -11 -17 3 -41 20 -35 10 4 14 2 10 -4 -8
-13 2 -45 12 -39 4 3 13 -9 20 -25 7 -16 17 -27 22 -23 5 3 9 -2 9 -11 0 -9 3
-14 7 -12 9 6 34 -19 27 -26 -9 -9 59 -68 73 -63 8 3 12 2 8 -3 -9 -15 6 -41
23 -41 13 0 12 3 -4 16 -18 14 -18 15 4 4 14 -7 21 -17 18 -26 -5 -13 6 -19
29 -14 6 1 7 -1 3 -5 -9 -9 43 -61 58 -57 6 1 14 -4 18 -13 3 -8 12 -15 20
-15 7 0 17 -7 20 -16 4 -9 13 -14 22 -10 8 3 13 2 10 -2 -3 -4 5 -14 17 -22
20 -12 21 -12 8 3 -8 10 -9 17 -3 17 6 0 14 -9 17 -21 4 -13 12 -18 21 -15 8
3 13 2 10 -3 -3 -4 23 -22 57 -39 45 -22 66 -27 75 -20 9 8 11 7 6 -6 -4 -12
0 -16 15 -16 12 0 21 -5 21 -11 0 -8 4 -8 14 0 11 9 15 8 20 -4 3 -8 9 -14 13
-14 9 2 40 -8 65 -22 11 -5 20 -5 24 3 5 8 10 7 18 -3 15 -18 36 -22 36 -7 1
8 5 7 13 -4 8 -9 22 -15 33 -14 10 2 24 0 29 -4 39 -28 464 -31 535 -3 8 3 23
5 33 4 10 -1 24 2 30 7 7 5 22 8 34 7 12 -1 20 2 17 6 -7 12 11 19 26 9 8 -5
19 -3 27 6 8 8 18 12 23 9 5 -3 11 -1 15 4 3 6 12 8 20 4 10 -3 15 1 15 12 0
14 3 15 15 5 12 -10 16 -9 21 3 3 9 12 13 20 10 9 -3 14 2 15 13 0 11 3 14 5
7 3 -7 12 -9 20 -6 7 3 11 10 7 16 -3 5 -2 7 4 4 12 -7 73 14 73 25 0 4 7 8
15 8 8 0 15 4 15 10 0 5 7 7 15 4 8 -4 15 -1 15 7 0 7 3 10 6 6 9 -8 33 16 26
27 -3 5 2 7 11 3 10 -3 17 -2 17 3 0 5 20 19 44 30 25 11 51 28 58 38 7 11 23
24 36 31 13 7 21 18 19 25 -6 15 35 56 62 61 29 5 42 14 40 28 -3 26 2 38 12
31 8 -4 7 -9 -2 -16 -11 -8 -11 -9 -1 -6 8 2 13 7 13 11 -1 4 14 23 34 42 34
35 45 53 25 40 -16 -10 -11 1 7 16 15 12 16 12 8 -1 -4 -8 1 -6 12 5 15 14 18
24 10 33 -7 9 -6 11 5 7 17 -7 32 20 21 37 -3 6 -1 8 4 5 14 -9 46 40 37 55
-4 7 -3 8 4 4 12 -7 35 27 25 37 -3 4 2 9 11 13 9 3 13 10 10 15 -3 5 0 9 7 9
7 0 9 3 6 7 -4 3 -2 12 4 19 6 8 9 21 5 29 -3 9 -2 13 3 10 5 -3 12 -1 16 5 3
5 0 10 -7 10 -8 0 -6 5 5 11 9 6 15 14 12 20 -4 5 -1 9 6 9 6 0 9 8 6 20 -3
11 -1 18 3 15 12 -7 33 72 24 87 -4 7 -3 8 4 4 12 -7 16 5 13 32 -1 8 3 19 9
26 5 8 8 21 4 30 -3 9 -2 16 4 16 5 0 9 18 9 39 0 22 4 46 9 53 6 7 10 43 9
81 0 37 2 67 6 67 8 0 5 32 -5 48 -4 7 -2 12 4 12 6 0 8 5 4 12 -4 6 -9 41
-11 77 -4 73 -11 145 -14 149 -1 1 -2 6 -3 11 0 5 -4 12 -8 16 -4 4 -4 13 -2
20 3 7 1 16 -5 20 -6 3 -11 17 -11 29 0 13 -7 39 -15 59 -8 19 -11 38 -7 42 4
5 0 6 -9 3 -12 -5 -15 -1 -11 18 2 14 0 24 -7 24 -7 0 -9 5 -6 10 3 6 3 16 -2
23 -4 6 -8 17 -8 22 -1 6 -6 9 -12 8 -6 -1 -9 6 -5 19 4 15 2 19 -7 14 -8 -6
-11 -2 -9 10 2 12 -2 18 -11 16 -12 -3 -12 0 -1 12 10 13 10 16 -4 16 -10 0
-14 5 -11 10 3 6 2 10 -4 10 -6 0 -8 7 -5 15 4 8 1 15 -6 15 -6 0 -8 5 -4 12
5 8 2 9 -9 5 -9 -3 -19 -2 -22 3 -4 6 -1 10 4 10 6 0 -3 23 -20 50 -17 28 -35
47 -40 44 -5 -3 -8 -2 -7 3 4 13 -25 49 -50 62 -12 7 -20 16 -17 21 9 15 -142
161 -159 154 -9 -4 -20 5 -30 24 -15 29 -41 48 -61 43 -5 -2 -7 1 -3 5 8 8
-32 41 -44 36 -5 -1 -8 3 -8 9 0 6 -7 9 -14 6 -11 -4 -13 -1 -9 10 4 10 2 14
-5 9 -6 -3 -13 -2 -17 4 -4 6 -11 8 -16 5 -5 -4 -9 -1 -9 5 0 7 -7 9 -16 6 -8
-3 -13 -2 -10 2 3 4 -17 20 -44 34 -37 20 -51 23 -61 14 -9 -8 -10 -7 -5 8 5
15 2 17 -14 13 -12 -3 -18 -1 -14 5 4 5 -4 8 -17 6 -16 -2 -23 1 -21 11 2 9
-4 12 -18 8 -11 -3 -20 -1 -20 5 0 6 -7 8 -15 4 -8 -3 -15 -2 -15 3 0 5 -15
11 -32 15 -18 3 -44 8 -58 11 -14 4 -33 7 -42 8 -10 1 -18 4 -18 7 0 3 -16 7
-37 8 -20 2 -40 5 -45 9 -12 6 -265 22 -271 17z m-806 -297 c-10 -9 -11 -8 -5
6 3 10 9 15 12 12 3 -3 0 -11 -7 -18z m-66 -46 c-3 -6 -11 -11 -16 -11 -5 0
-4 6 3 14 14 16 24 13 13 -3z m-237 -245 c-7 -8 -15 -12 -17 -11 -5 6 10 25
20 25 5 0 4 -6 -3 -14z m37 -1705 c-6 -5 -25 10 -25 20 0 5 6 4 14 -3 8 -7 12
-15 11 -17z m85 -86 c7 -9 10 -18 6 -22 -3 -3 -6 -1 -6 6 0 7 -5 9 -12 5 -6
-4 -8 -3 -4 4 3 5 0 13 -6 15 -8 4 -9 6 -2 6 6 1 17 -6 24 -14z m1920 -155 c0
-5 -5 -10 -11 -10 -5 0 -7 5 -4 10 3 6 8 10 11 10 2 0 4 -4 4 -10z"/>
<path d="M2466 2595 c4 -8 11 -15 16 -15 6 0 5 6 -2 15 -7 8 -14 15 -16 15 -2
0 -1 -7 2 -15z"/>
<path d="M2650 2416 c0 -2 7 -7 16 -10 8 -3 12 -2 9 4 -6 10 -25 14 -25 6z"/>
<path d="M2537 486 c-14 -13 -24 -26 -21 -29 3 -3 17 6 31 19 14 13 24 26 21
29 -3 3 -17 -6 -31 -19z"/>
</g>
</svg>
